<?xml version="1.0" encoding="UTF-8"?>
<svg xmlns="http://www.w3.org/2000/svg" xmlns:xlink="http://www.w3.org/1999/xlink" width="256px" height="256px" viewBox="0 0 256 256" version="1.1">
<defs>
<linearGradient id="linear0" gradientUnits="userSpaceOnUse" x1="20.6442" y1="1011.5057" x2="24.3328" y2="998.8395" gradientTransform="matrix(10.666667,0,0,-10.666667,-128,10794.666667)">
<stop offset="0" style="stop-color:rgb(1.176471%,72.156863%,100%);stop-opacity:1;"/>
<stop offset="1" style="stop-color:rgb(98.039216%,32.156863%,62.745098%);stop-opacity:1;"/>
</linearGradient>
<linearGradient id="linear1" gradientUnits="userSpaceOnUse" x1="23.6818" y1="1012.3904" x2="27.3705" y2="999.7241" gradientTransform="matrix(10.666667,0,0,-10.666667,-128,10794.666667)">
<stop offset="0" style="stop-color:rgb(1.176471%,72.156863%,100%);stop-opacity:1;"/>
<stop offset="1" style="stop-color:rgb(98.039216%,32.156863%,62.745098%);stop-opacity:1;"/>
</linearGradient>
<linearGradient id="linear2" gradientUnits="userSpaceOnUse" x1="17.616" y1="1010.6239" x2="21.3047" y2="997.9576" gradientTransform="matrix(10.666667,0,0,-10.666667,-128,10794.666667)">
<stop offset="0" style="stop-color:rgb(1.176471%,72.156863%,100%);stop-opacity:1;"/>
<stop offset="1" style="stop-color:rgb(98.039216%,32.156863%,62.745098%);stop-opacity:1;"/>
</linearGradient>
</defs>
<g id="surface1">
<path style=" stroke:none;fill-rule:nonzero;fill:url(#linear0);" d="M 53.332031 24.535156 L 251.734375 160 L 202.667969 232.535156 L 4.265625 96 Z M 53.332031 24.535156 "/>
<path style=" stroke:none;fill-rule:nonzero;fill:url(#linear1);" d="M 251.734375 160 C 234.667969 184.535156 177.066406 174.933594 122.667969 136.535156 C 67.199219 99.199219 37.332031 49.066406 53.332031 24.535156 C 70.398438 0 128 9.601562 182.398438 48 C 237.867188 84.265625 267.734375 135.464844 251.734375 160 Z M 251.734375 160 "/>
<path style=" stroke:none;fill-rule:nonzero;fill:url(#linear2);" d="M 202.667969 231.464844 C 185.601562 256 128 246.398438 73.601562 208 C 19.199219 169.601562 -11.734375 120.535156 5.332031 94.933594 C 22.398438 70.398438 80 80 134.398438 118.398438 C 188.800781 156.800781 218.667969 206.933594 202.667969 231.464844 Z M 202.667969 231.464844 "/>
<path style=" stroke:none;fill-rule:nonzero;fill:rgb(5.490196%,5.882353%,13.72549%);fill-opacity:1;" d="M 251.734375 160 L 202.667969 232.535156 C 185.601562 257.066406 128 246.398438 73.601562 209.066406 C 62.933594 201.601562 53.332031 194.132812 43.734375 185.601562 C 51.199219 184.535156 60.800781 180.265625 70.398438 169.601562 C 87.464844 151.464844 96 147.199219 103.464844 148.265625 C 110.933594 148.265625 119.464844 155.734375 133.332031 173.867188 C 147.199219 192 166.398438 197.332031 178.132812 187.734375 C 179.199219 186.667969 180.265625 186.667969 181.332031 185.601562 C 190.933594 178.132812 194.132812 174.933594 212.265625 140.800781 C 216.535156 132.265625 231.464844 118.398438 251.734375 124.800781 C 257.066406 138.667969 257.066406 150.398438 251.734375 160 Z M 251.734375 160 "/>
<path style=" stroke:none;fill-rule:evenodd;fill:rgb(100%,100%,100%);fill-opacity:1;" d="M 244.265625 155.734375 C 229.332031 177.066406 177.066406 166.398438 126.933594 131.199219 C 75.734375 96 45.867188 51.199219 60.800781 29.867188 C 75.734375 8.535156 128 19.199219 178.132812 54.398438 C 228.265625 89.601562 258.132812 134.398438 244.265625 155.734375 Z M 197.332031 123.734375 C 189.867188 134.398438 164.265625 129.066406 138.667969 112 C 114.132812 94.933594 99.199219 72.535156 106.667969 61.867188 C 114.132812 51.199219 139.734375 56.535156 165.332031 73.601562 C 189.867188 90.667969 204.800781 113.066406 197.332031 123.734375 Z M 197.332031 123.734375 "/>
<path style=" stroke:none;fill-rule:nonzero;fill:rgb(100%,100%,100%);fill-opacity:1;" d="M 49.066406 49.066406 C 49.066406 48 48 46.933594 46.933594 48 C 45.867188 49.066406 44.800781 49.066406 44.800781 50.132812 C 45.867188 53.332031 46.933594 55.464844 46.933594 57.601562 C 46.933594 58.667969 48 59.734375 49.066406 58.667969 C 50.132812 58.667969 51.199219 57.601562 50.132812 56.535156 C 50.132812 54.398438 50.132812 52.265625 49.066406 49.066406 Z M 49.066406 49.066406 "/>
<path style=" stroke:none;fill-rule:nonzero;fill:rgb(100%,100%,100%);fill-opacity:1;" d="M 54.398438 66.132812 C 54.398438 65.066406 53.332031 64 52.265625 65.066406 C 51.199219 66.132812 51.199219 66.132812 51.199219 67.199219 C 62.933594 93.867188 87.464844 122.667969 119.464844 144 C 120.535156 145.066406 121.601562 144 122.667969 144 C 123.734375 142.933594 122.667969 141.867188 122.667969 140.800781 C 89.601562 119.464844 66.132812 91.734375 54.398438 66.132812 Z M 54.398438 66.132812 "/>
<path style=" stroke:none;fill-rule:nonzero;fill:rgb(100%,100%,100%);fill-opacity:1;" d="M 183.464844 170.667969 C 182.398438 170.667969 181.332031 170.667969 181.332031 171.734375 C 181.332031 172.800781 181.332031 173.867188 182.398438 173.867188 C 185.601562 174.933594 189.867188 176 193.066406 177.066406 C 194.132812 177.066406 195.199219 177.066406 195.199219 176 C 195.199219 174.933594 195.199219 173.867188 194.132812 173.867188 C 190.933594 172.800781 186.667969 171.734375 183.464844 170.667969 Z M 183.464844 170.667969 "/>
<path style=" stroke:none;fill-rule:nonzero;fill:rgb(100%,100%,100%);fill-opacity:1;" d="M 202.667969 174.933594 C 201.601562 174.933594 200.535156 176 200.535156 177.066406 C 200.535156 178.132812 201.601562 179.199219 202.667969 179.199219 C 211.199219 180.265625 220.800781 181.332031 228.265625 180.265625 C 229.332031 180.265625 230.398438 179.199219 230.398438 178.132812 C 230.398438 177.066406 229.332031 176 228.265625 176 C 219.734375 177.066406 211.199219 176 202.667969 174.933594 Z M 202.667969 174.933594 "/>
</g>
</svg>
