<svg width="42" height="42" viewBox="0 0 42 42" fill="none" xmlns="http://www.w3.org/2000/svg">
<g clip-path="url(#clip0_156_448)">
<path d="M21 42C32.6376 42 42 32.6376 42 21C42 9.36243 32.6376 0 21 0C9.36243 0 0 9.36243 0 21C0 32.6376 9.36243 42 21 42Z" fill="#50AF95"/>
<path fill-rule="evenodd" clip-rule="evenodd" d="M23.4416 22.8261C23.3052 22.8363 22.6006 22.8782 21.029 22.8782C19.7789 22.8782 18.8914 22.8408 18.58 22.8261C13.7491 22.6147 10.1432 21.7778 10.1432 20.7758C10.1432 19.7738 13.7491 18.938 18.58 18.7231V21.9926C18.8959 22.0153 19.8005 22.0684 21.0506 22.0684C22.5506 22.0684 23.3018 22.0062 23.437 21.9938V18.7254C28.2577 18.9391 31.8556 19.776 31.8556 20.7758C31.8556 21.7755 28.2589 22.6124 23.437 22.825L23.4416 22.8261ZM23.4416 18.3872V15.4615H30.1692V11H11.8524V15.4615H18.5789V18.3861C13.1116 18.636 9 19.7138 9 21.0053C9 22.2969 13.1116 23.3735 18.5789 23.6246V33H23.4405V23.6212C28.8953 23.3713 33 22.2946 33 21.0042C33 19.7138 28.8987 18.6372 23.4405 18.3861L23.4416 18.3872Z" fill="white"/>
</g>
<defs>
<clipPath id="clip0_156_448">
<rect width="42" height="42" fill="white"/>
</clipPath>
</defs>
</svg>
