<?xml version="1.0" encoding="UTF-8"?>
<svg xmlns="http://www.w3.org/2000/svg" xmlns:xlink="http://www.w3.org/1999/xlink" width="200px" height="200px" viewBox="0 0 200 200" version="1.1">
<g id="surface1">
<path style=" stroke:none;fill-rule:nonzero;fill:rgb(15.294118%,45.882353%,79.215686%);fill-opacity:1;" d="M 100 200 C 155.417969 200 200 155.417969 200 100 C 200 44.582031 155.417969 0 100 0 C 44.582031 0 0 44.582031 0 100 C 0 155.417969 44.582031 200 100 200 Z M 100 200 "/>
<path style=" stroke:none;fill-rule:nonzero;fill:rgb(100%,100%,100%);fill-opacity:1;" d="M 127.5 115.832031 C 127.5 101.25 118.75 96.25 101.25 94.167969 C 88.75 92.5 86.25 89.167969 86.25 83.332031 C 86.25 77.5 90.417969 73.75 98.75 73.75 C 106.25 73.75 110.417969 76.25 112.5 82.5 C 112.917969 83.75 114.167969 84.582031 115.417969 84.582031 L 122.082031 84.582031 C 123.75 84.582031 125 83.332031 125 81.667969 L 125 81.25 C 123.332031 72.082031 115.832031 65 106.25 64.167969 L 106.25 54.167969 C 106.25 52.5 105 51.25 102.917969 50.832031 L 96.667969 50.832031 C 95 50.832031 93.75 52.082031 93.332031 54.167969 L 93.332031 63.75 C 80.832031 65.417969 72.917969 73.75 72.917969 84.167969 C 72.917969 97.917969 81.25 103.332031 98.75 105.417969 C 110.417969 107.5 114.167969 110 114.167969 116.667969 C 114.167969 123.335938 108.332031 127.917969 100.417969 127.917969 C 89.582031 127.917969 85.832031 123.332031 84.582031 117.082031 C 84.167969 115.417969 82.917969 114.582031 81.667969 114.582031 L 74.582031 114.582031 C 72.917969 114.582031 71.667969 115.832031 71.667969 117.5 L 71.667969 117.917969 C 73.332031 128.332031 80 135.832031 93.75 137.917969 L 93.75 147.917969 C 93.75 149.582031 95 150.832031 97.082031 151.25 L 103.332031 151.25 C 105 151.25 106.25 150 106.667969 147.917969 L 106.667969 137.917969 C 119.167969 135.832031 127.5 127.082031 127.5 115.832031 Z M 127.5 115.832031 "/>
<path style=" stroke:none;fill-rule:nonzero;fill:rgb(100%,100%,100%);fill-opacity:1;" d="M 78.75 159.582031 C 46.25 147.917969 29.582031 111.667969 41.667969 79.582031 C 47.917969 62.082031 61.667969 48.75 78.75 42.5 C 80.417969 41.667969 81.25 40.417969 81.25 38.332031 L 81.25 32.5 C 81.25 30.832031 80.417969 29.582031 78.75 29.167969 C 78.332031 29.167969 77.5 29.167969 77.082031 29.582031 C 37.5 42.082031 15.832031 84.167969 28.332031 123.75 C 35.832031 147.082031 53.75 165 77.082031 172.5 C 78.75 173.332031 80.417969 172.5 80.832031 170.832031 C 81.25 170.417969 81.25 170 81.25 169.167969 L 81.25 163.332031 C 81.25 162.082031 80 160.417969 78.75 159.582031 Z M 122.917969 29.582031 C 121.25 28.75 119.582031 29.582031 119.167969 31.25 C 118.75 31.667969 118.75 32.082031 118.75 32.917969 L 118.75 38.75 C 118.75 40.417969 120 42.082031 121.25 42.917969 C 153.75 54.582031 170.417969 90.832031 158.332031 122.917969 C 152.082031 140.417969 138.332031 153.75 121.25 160 C 119.582031 160.832031 118.75 162.082031 118.75 164.167969 L 118.75 170 C 118.75 171.667969 119.582031 172.917969 121.25 173.332031 C 121.667969 173.332031 122.5 173.332031 122.917969 172.917969 C 162.5 160.417969 184.167969 118.332031 171.667969 78.75 C 164.167969 55 145.832031 37.082031 122.917969 29.582031 Z M 122.917969 29.582031 "/>
</g>
</svg>
