<svg width="42" height="42" viewBox="0 0 42 42" fill="none" xmlns="http://www.w3.org/2000/svg">
<g clip-path="url(#clip0_156_545)">
<path d="M21 42C32.6376 42 42 32.6376 42 21C42 9.36243 32.6376 0 21 0C9.36243 0 0 9.36243 0 21C0 32.6376 9.36243 42 21 42Z" fill="#74D4DB" fill-opacity="0.8"/>
<g clip-path="url(#clip1_156_545)">
<path fill-rule="evenodd" clip-rule="evenodd" d="M12.6751 12.0625C12.265 9.95 13.9054 8 16.0379 8C17.9243 8 19.4826 9.54375 19.4826 11.4125V15.6375C19.9748 15.6375 20.4669 15.5563 20.959 15.5563C21.4511 15.5563 21.8612 15.5562 22.3533 15.6375V11.4125C22.3533 9.54375 23.9117 8 25.7981 8C27.9306 8 29.571 9.95 29.2429 12.0625L28.3407 17.0188C31.5394 18.4 34 20.8375 34 23.8438V25.7125C34 28.2312 32.3596 30.3438 29.9811 31.725C27.6025 33.1875 24.4858 34 20.959 34C17.4322 34 14.3155 33.1875 11.9369 31.725C9.64038 30.3438 8 28.2312 8 25.7125V23.8438C8 20.8375 10.3785 18.4 13.5773 17.0188L12.6751 12.0625ZM27.1104 17.6687L28.1767 11.8187C28.4227 10.3562 27.3565 8.975 25.7981 8.975C24.4858 8.975 23.4196 10.0312 23.4196 11.3312V16.6937C23.0915 16.6125 22.6814 16.6125 22.3533 16.6125C21.8612 16.6125 21.4511 16.5312 20.959 16.5312C20.4669 16.5312 19.9748 16.5312 19.4826 16.6125C19.1546 16.6125 18.7445 16.6937 18.4164 16.6937V11.4125C18.4164 10.1125 17.3502 9.05625 16.0379 9.05625C14.5615 9.05625 13.4132 10.4375 13.7413 11.9L14.8076 17.75C11.3628 19.05 9.06625 21.325 9.06625 23.925V25.7937C9.06625 29.775 14.3975 33.025 20.959 33.025C27.5205 33.025 32.8517 29.775 32.8517 25.7937V23.925C32.9338 21.2438 30.6372 18.9688 27.1104 17.6687Z" fill="#633001"/>
<path d="M32.9337 25.7125C32.9337 29.6937 27.6025 32.9438 21.0409 32.9438C14.4794 32.9438 9.14819 29.6937 9.14819 25.7125V23.8438H33.0157V25.7125H32.9337Z" fill="#FEDC90"/>
<path fill-rule="evenodd" clip-rule="evenodd" d="M13.7413 11.9004C13.4132 10.4379 14.5614 9.05664 16.0378 9.05664C17.3501 9.05664 18.4163 10.1129 18.4163 11.4129V16.7754C19.2365 16.6941 20.0567 16.6129 20.9589 16.6129C21.7791 16.6129 22.5993 16.6941 23.4195 16.7754V11.4129C23.4195 10.1129 24.4857 9.05664 25.798 9.05664C27.2744 9.05664 28.4226 10.4379 28.1766 11.9004L27.1103 17.7504C30.5551 19.0504 32.9337 21.3254 32.9337 23.9254C32.9337 27.9066 27.6025 31.1566 21.0409 31.1566C14.4794 31.1566 9.14819 27.9066 9.14819 23.9254C9.14819 21.3254 11.4447 19.0504 14.8895 17.7504L13.7413 11.9004Z" fill="#D1884F"/>
<path d="M17.6783 23.3562C17.6783 24.4125 17.1042 25.3062 16.366 25.3062C15.6278 25.3062 15.0537 24.4125 15.0537 23.3562C15.0537 22.3 15.6278 21.4062 16.366 21.4062C17.1042 21.4062 17.6783 22.3 17.6783 23.3562Z" fill="#633001"/>
<path d="M26.7823 23.3562C26.7823 24.4125 26.2082 25.3062 25.47 25.3062C24.7318 25.3062 24.1577 24.4125 24.1577 23.3562C24.1577 22.3 24.7318 21.4062 25.47 21.4062C26.2082 21.4062 26.7823 22.3 26.7823 23.3562Z" fill="#633001"/>
</g>
</g>
<defs>
<clipPath id="clip0_156_545">
<rect width="42" height="42" fill="white"/>
</clipPath>
<clipPath id="clip1_156_545">
<rect width="26" height="26" fill="white" transform="translate(8 8)"/>
</clipPath>
</defs>
</svg>
