<?xml version="1.0" encoding="UTF-8"?>
<svg xmlns="http://www.w3.org/2000/svg" xmlns:xlink="http://www.w3.org/1999/xlink" width="256px" height="256px" viewBox="0 0 256 256" version="1.1">
<defs>
<linearGradient id="linear0" gradientUnits="userSpaceOnUse" x1="48" y1="0" x2="48" y2="96" gradientTransform="matrix(2.666667,0,0,2.666667,0,0)">
<stop offset="0" style="stop-color:rgb(32.54902%,87.058824%,91.372549%);stop-opacity:1;"/>
<stop offset="1" style="stop-color:rgb(12.156863%,78.039216%,83.137255%);stop-opacity:1;"/>
</linearGradient>
</defs>
<g id="surface1">
<path style=" stroke:none;fill-rule:nonzero;fill:url(#linear0);" d="M 256 128 C 256 198.691406 198.691406 256 128 256 C 57.308594 256 0 198.691406 0 128 C 0 57.308594 57.308594 0 128 0 C 198.691406 0 256 57.308594 256 128 Z M 256 128 "/>
<path style=" stroke:none;fill-rule:evenodd;fill:rgb(38.823529%,18.823529%,0.392157%);fill-opacity:1;" d="M 127.621094 213 C 102.710938 212.980469 82.644531 207.003906 68.625 196.265625 C 54.433594 185.402344 46.90625 169.980469 46.90625 152.535156 C 46.90625 135.722656 54.417969 123.597656 62.917969 115.40625 C 69.578125 108.984375 76.925781 104.871094 82.042969 102.503906 C 80.886719 98.953125 79.441406 94.304688 78.148438 89.5 C 76.421875 83.074219 74.726562 75.535156 74.726562 70.011719 C 74.726562 63.472656 76.152344 56.90625 79.996094 51.800781 C 84.058594 46.410156 90.171875 43.523438 97.527344 43.523438 C 103.277344 43.523438 108.15625 45.652344 111.980469 49.332031 C 115.632812 52.847656 118.0625 57.519531 119.742188 62.386719 C 122.691406 70.941406 123.839844 81.6875 124.160156 92.414062 L 131.207031 92.414062 C 131.527344 81.6875 132.675781 70.941406 135.625 62.386719 C 137.304688 57.519531 139.734375 52.847656 143.390625 49.332031 C 147.210938 45.652344 152.089844 43.523438 157.839844 43.523438 C 165.195312 43.523438 171.308594 46.410156 175.371094 51.800781 C 179.214844 56.90625 180.640625 63.472656 180.640625 70.011719 C 180.640625 75.535156 178.945312 83.074219 177.21875 89.5 C 175.925781 94.304688 174.480469 98.953125 173.324219 102.503906 C 178.441406 104.871094 185.792969 108.984375 192.453125 115.40625 C 200.949219 123.597656 208.460938 135.722656 208.460938 152.535156 C 208.460938 169.980469 200.933594 185.402344 186.746094 196.265625 C 172.722656 207.003906 152.65625 212.980469 127.746094 213 Z M 127.621094 213 "/>
<path style=" stroke:none;fill-rule:nonzero;fill:rgb(81.960784%,53.333333%,30.980392%);fill-opacity:1;" d="M 97.527344 49.742188 C 86.753906 49.742188 81.792969 57.859375 81.792969 69.089844 C 81.792969 78.015625 87.558594 95.890625 89.921875 102.851562 C 90.453125 104.414062 89.617188 106.128906 88.09375 106.738281 C 79.457031 110.175781 53.976562 122.769531 53.976562 151.613281 C 53.976562 181.992188 79.871094 204.902344 127.625 204.9375 C 127.644531 204.9375 127.664062 204.9375 127.683594 204.9375 C 127.703125 204.9375 127.722656 204.9375 127.742188 204.9375 C 175.496094 204.902344 201.390625 181.992188 201.390625 151.613281 C 201.390625 122.769531 175.910156 110.175781 167.273438 106.738281 C 165.75 106.128906 164.914062 104.414062 165.445312 102.851562 C 167.808594 95.890625 173.574219 78.015625 173.574219 69.089844 C 173.574219 57.859375 168.613281 49.742188 157.839844 49.742188 C 142.332031 49.742188 138.464844 71.933594 138.1875 95.753906 C 138.171875 97.34375 136.898438 98.632812 135.324219 98.632812 L 120.042969 98.632812 C 118.46875 98.632812 117.195312 97.34375 117.179688 95.753906 C 116.902344 71.933594 113.035156 49.742188 97.527344 49.742188 Z M 97.527344 49.742188 "/>
<path style=" stroke:none;fill-rule:nonzero;fill:rgb(99.607843%,86.27451%,56.470588%);fill-opacity:1;" d="M 127.742188 195.207031 C 92.652344 195.207031 54.035156 176.230469 53.976562 151.667969 C 53.976562 151.707031 53.976562 151.746094 53.976562 151.785156 C 53.976562 182.191406 79.914062 205.109375 127.742188 205.109375 C 175.566406 205.109375 201.503906 182.191406 201.503906 151.785156 C 201.503906 151.746094 201.503906 151.707031 201.503906 151.667969 C 201.445312 176.230469 162.828125 195.207031 127.742188 195.207031 Z M 127.742188 195.207031 "/>
<path style=" stroke:none;fill-rule:nonzero;fill:rgb(38.823529%,18.823529%,0.392157%);fill-opacity:1;" d="M 108.246094 144.125 C 108.246094 152.417969 104.367188 156.738281 99.582031 156.738281 C 94.792969 156.738281 90.914062 152.417969 90.914062 144.125 C 90.914062 135.832031 94.792969 131.515625 99.582031 131.515625 C 104.367188 131.515625 108.246094 135.832031 108.246094 144.125 Z M 108.246094 144.125 "/>
<path style=" stroke:none;fill-rule:nonzero;fill:rgb(38.823529%,18.823529%,0.392157%);fill-opacity:1;" d="M 164.566406 144.125 C 164.566406 152.417969 160.6875 156.738281 155.902344 156.738281 C 151.117188 156.738281 147.234375 152.417969 147.234375 144.125 C 147.234375 135.832031 151.117188 131.515625 155.902344 131.515625 C 160.6875 131.515625 164.566406 135.832031 164.566406 144.125 Z M 164.566406 144.125 "/>
</g>
</svg>
