<svg width="42" height="42" viewBox="0 0 42 42" fill="none" xmlns="http://www.w3.org/2000/svg">
<g clip-path="url(#clip0_156_428)">
<mask id="mask0_156_428" style="mask-type:luminance" maskUnits="userSpaceOnUse" x="0" y="0" width="42" height="42">
<path d="M20.9915 42.0001C32.5514 42.0001 41.9225 32.6387 41.9225 21.0909C41.9225 9.54303 32.5514 0.181641 20.9915 0.181641C9.43167 0.181641 0.0605469 9.54303 0.0605469 21.0909C0.0605469 32.6387 9.43167 42.0001 20.9915 42.0001Z" fill="white"/>
</mask>
<g mask="url(#mask0_156_428)">
<mask id="mask1_156_428" style="mask-type:luminance" maskUnits="userSpaceOnUse" x="0" y="0" width="42" height="42">
<path d="M41.9832 0H0V41.9396H41.9832V0Z" fill="white"/>
</mask>
<g mask="url(#mask1_156_428)">
<path d="M41.1435 26.9752C38.9268 34.6082 32.5622 40.3456 24.7365 41.7547V35.7825C26.1471 35.2457 27.4234 34.3901 28.4646 33.2829C29.0356 32.6622 29.5394 31.9744 29.9256 31.2363C30.6645 29.8271 31.0676 28.2669 31.0676 26.6732V26.6229C31.0676 21.3553 27.2555 19.2415 23.6785 17.6814L21.8648 16.8762C19.9336 16.0038 18.4558 15.2321 18.4558 13.9236C18.4558 12.095 20.0512 11.122 21.5458 11.122C23.1411 11.122 24.048 11.7092 25.0052 13.37L25.7441 14.6617L30.5302 11.5918L29.9088 10.4342C28.8173 8.35402 26.9532 6.74354 24.7365 5.97185V0.50293C25.2067 0.586809 25.6601 0.687464 26.1303 0.804895C26.1807 0.821671 26.2311 0.821671 26.2815 0.838446C26.3319 0.855222 26.3822 0.855222 26.4326 0.871998C26.4494 0.871998 26.4662 0.871998 26.483 0.888774C26.6006 0.922326 26.7349 0.955877 26.8692 0.989429C35.8369 3.58968 42 11.7931 42 21.1204C42 23.1 41.7145 25.0795 41.1603 26.9752H41.1435Z" fill="#745DDF"/>
<path d="M25.1899 26.9082C25.1899 29.3072 23.0236 30.8002 21.0084 30.8002C18.5902 30.8002 17.2131 28.8039 16.9444 26.9585L16.7093 25.3481L10.9156 26.9753L11.1843 28.2671C12.0072 32.3436 14.7949 35.2794 18.5902 36.1517V41.9226C17.5658 41.8052 16.5414 41.6038 15.5506 41.3354C15.4162 41.3019 15.2651 41.2683 15.1307 41.218C6.17993 38.6177 0 30.4144 0 21.087V0.939204C0 0.486256 0.369452 0.117188 0.822871 0.117188H18.5902V5.88808C16.5078 6.49201 14.7445 7.86763 13.6361 9.71297C12.9308 10.9376 12.5614 12.3132 12.5614 13.7224V13.8902C12.6118 18.5874 16.0712 20.5669 19.3459 22.0432L20.9748 22.7478L21.1092 22.8149C23.6953 24.006 25.1563 24.7777 25.1563 26.8914L25.1899 26.9082Z" fill="#2EB6EA"/>
<path d="M31.0509 26.6226V26.673C31.0509 28.2667 30.6646 29.8268 29.9089 31.236C29.5227 31.9741 29.0189 32.6787 28.4479 33.2826C27.4067 34.3899 26.1304 35.2454 24.7198 35.7822V41.7712L23.0405 41.9222C23.0405 41.9222 19.4467 42.0229 18.5902 41.9222L18.5735 36.1681C14.795 35.279 12.0073 32.36 11.1676 28.2834L10.8989 26.9917L16.6926 25.3645L16.9277 26.9749C17.1964 28.8203 18.5735 30.8166 20.9917 30.8166C23.0069 30.8166 25.1732 29.3236 25.1732 26.9246C25.1732 24.8109 23.7122 24.0392 21.1092 22.8481L20.9749 22.781L19.3459 22.0764C16.0713 20.6001 12.6118 18.6373 12.5615 13.9233V13.7556C12.5615 12.3464 12.9309 10.9708 13.6362 9.74614C14.7446 7.88402 16.5079 6.5084 18.5902 5.92125V0.15036C22.3687 0.116808 22.671 0.133584 24.7366 0.502653V5.98835C26.9701 6.76004 28.8174 8.35375 29.9089 10.4507L30.5303 11.6083L25.7442 14.6782L25.0053 13.3865C24.0481 11.7257 23.1412 11.1385 21.5459 11.1385C20.0345 11.1385 18.4559 12.1115 18.4559 13.9401C18.4559 15.2654 19.9337 16.0371 21.8649 16.8927L23.6786 17.6979C27.2556 19.258 31.0677 21.3718 31.0677 26.6394L31.0509 26.6226Z" fill="white"/>
</g>
</g>
</g>
<defs>
<clipPath id="clip0_156_428">
<rect width="42" height="42" fill="white"/>
</clipPath>
</defs>
</svg>
