<svg width="367" height="379" viewBox="0 0 367 379" fill="none" xmlns="http://www.w3.org/2000/svg">
<path d="M329.926 70.5063L208.186 5.96524C193.235 -1.97725 175.415 -1.97726 160.464 5.89849L37.4557 70.7066C18.901 81.8528 1.54766 95.0013 0.813477 133.312V164.214H48.6687V121.966L184.359 49.6156L319.047 121.966V164.214H366.902V133.312C366.101 94.801 348.615 81.7193 329.926 70.5063Z" fill="#356DF3"/>
<path d="M318.98 260.459L208.253 322.463V272.406C247.164 263.262 272.794 231.559 272.794 189.176C272.794 137.784 237.286 103.277 184.359 103.277C131.431 103.277 95.9232 137.784 95.9232 189.176C95.9232 231.625 121.486 263.262 160.464 272.406V322.53L48.7354 260.459V214.272H0.813477V245.108C1.6144 283.352 18.901 296.567 37.4557 307.713L160.464 372.521C175.415 380.397 193.302 380.397 208.186 372.455L329.86 307.913C348.548 296.767 366.101 283.619 366.836 245.108V214.272H318.98V260.459V260.459ZM140.374 189.176C140.374 161.011 155.992 145.526 184.359 145.526C212.725 145.526 228.343 161.011 228.343 189.176C228.343 216.475 211.924 232.827 184.359 232.827C156.793 232.827 140.374 216.541 140.374 189.176Z" fill="#356DF3"/>
</svg>
