<?xml version="1.0" encoding="UTF-8"?>
<svg xmlns="http://www.w3.org/2000/svg" xmlns:xlink="http://www.w3.org/1999/xlink" width="210px" height="210px" viewBox="0 0 210 210" version="1.1">
<defs>
<filter id="alpha" filterUnits="objectBoundingBox" x="0%" y="0%" width="100%" height="100%">
  <feColorMatrix type="matrix" in="SourceGraphic" values="0 0 0 0 1 0 0 0 0 1 0 0 0 0 1 0 0 0 1 0"/>
</filter>
<mask id="mask0">
  <g filter="url(#alpha)">
<rect x="0" y="0" width="210" height="210" style="fill:rgb(0%,0%,0%);fill-opacity:0.6;stroke:none;"/>
  </g>
</mask>
<clipPath id="clip1">
  <rect x="0" y="0" width="210" height="210"/>
</clipPath>
<g id="surface5" clip-path="url(#clip1)">
<path style=" stroke:none;fill-rule:nonzero;fill:rgb(0%,63.921569%,100%);fill-opacity:1;" d="M 105 129.230469 L 21 93.691406 C 105 210 105 210 105 210 C 105 184.960938 105 155.882812 105 129.230469 Z M 105 129.230469 "/>
</g>
<mask id="mask1">
  <g filter="url(#alpha)">
<rect x="0" y="0" width="210" height="210" style="fill:rgb(0%,0%,0%);fill-opacity:0.6;stroke:none;"/>
  </g>
</mask>
<clipPath id="clip2">
  <rect x="0" y="0" width="210" height="210"/>
</clipPath>
<g id="surface8" clip-path="url(#clip2)">
<path style=" stroke:none;fill-rule:nonzero;fill:rgb(0%,63.921569%,100%);fill-opacity:1;" d="M 189 94.5 L 191.210938 96.921875 C 216.632812 126 211.105469 163.960938 176.84375 188.191406 C 156.949219 202.730469 131.527344 210 105 210 C 105 210 105 210 189 94.5 Z M 189 94.5 "/>
</g>
<mask id="mask2">
  <g filter="url(#alpha)">
<rect x="0" y="0" width="210" height="210" style="fill:rgb(0%,0%,0%);fill-opacity:0.2;stroke:none;"/>
  </g>
</mask>
<clipPath id="clip3">
  <rect x="0" y="0" width="210" height="210"/>
</clipPath>
<g id="surface11" clip-path="url(#clip3)">
<path style=" stroke:none;fill-rule:nonzero;fill:rgb(0%,63.921569%,100%);fill-opacity:1;" d="M 105 129.230469 L 189 93.691406 C 105 210 105 210 105 210 C 105 184.960938 105 155.882812 105 129.230469 Z M 105 129.230469 "/>
</g>
<mask id="mask3">
  <g filter="url(#alpha)">
<rect x="0" y="0" width="210" height="210" style="fill:rgb(0%,0%,0%);fill-opacity:0.2;stroke:none;"/>
  </g>
</mask>
<clipPath id="clip4">
  <rect x="0" y="0" width="210" height="210"/>
</clipPath>
<g id="surface14" clip-path="url(#clip4)">
<path style=" stroke:none;fill-rule:nonzero;fill:rgb(0%,63.921569%,100%);fill-opacity:1;" d="M 105 50.882812 L 105 111.460938 L 177.949219 81.578125 Z M 105 50.882812 "/>
</g>
<mask id="mask4">
  <g filter="url(#alpha)">
<rect x="0" y="0" width="210" height="210" style="fill:rgb(0%,0%,0%);fill-opacity:0.6;stroke:none;"/>
  </g>
</mask>
<clipPath id="clip5">
  <rect x="0" y="0" width="210" height="210"/>
</clipPath>
<g id="surface17" clip-path="url(#clip5)">
<path style=" stroke:none;fill-rule:nonzero;fill:rgb(0%,63.921569%,100%);fill-opacity:1;" d="M 105 50.882812 L 32.050781 81.578125 L 105 111.460938 Z M 105 50.882812 "/>
</g>
<mask id="mask5">
  <g filter="url(#alpha)">
<rect x="0" y="0" width="210" height="210" style="fill:rgb(0%,0%,0%);fill-opacity:0.6;stroke:none;"/>
  </g>
</mask>
<clipPath id="clip6">
  <rect x="0" y="0" width="210" height="210"/>
</clipPath>
<g id="surface20" clip-path="url(#clip6)">
<path style=" stroke:none;fill-rule:nonzero;fill:rgb(0%,63.921569%,100%);fill-opacity:1;" d="M 105 50.882812 L 177.949219 81.578125 L 105 0 Z M 105 50.882812 "/>
</g>
</defs>
<g id="surface1">
<path style=" stroke:none;fill-rule:nonzero;fill:rgb(0%,63.921569%,100%);fill-opacity:1;" d="M 21 94.5 L 18.789062 96.921875 C -6.632812 126 -1.105469 163.960938 33.15625 188.191406 C 51.949219 202.730469 78.472656 210 105 210 C 105 210 105 210 21 94.5 Z M 21 94.5 "/>
<use xlink:href="#surface5" mask="url(#mask0)"/>
<use xlink:href="#surface8" mask="url(#mask1)"/>
<use xlink:href="#surface11" mask="url(#mask2)"/>
<use xlink:href="#surface14" mask="url(#mask3)"/>
<use xlink:href="#surface17" mask="url(#mask4)"/>
<path style=" stroke:none;fill-rule:nonzero;fill:rgb(0%,63.921569%,100%);fill-opacity:1;" d="M 105 0 L 32.050781 81.578125 L 105 50.882812 Z M 105 0 "/>
<use xlink:href="#surface20" mask="url(#mask5)"/>
</g>
</svg>
