<svg width="176" height="177" viewBox="0 0 176 177" fill="none" xmlns="http://www.w3.org/2000/svg">
<path d="M58.4264 3.51112C59.5065 2.17956 61.5285 2.1503 62.6467 3.45004L86.5357 31.2168C87.3879 32.2073 87.4254 33.6607 86.6255 34.6939L55.8257 74.4714C55.3049 75.1441 54.502 75.5378 53.6513 75.5378H5.77174C3.45717 75.5378 2.17792 72.8529 3.63604 71.0554L58.4264 3.51112Z" fill="#7F4AFE"/>
<path d="M117.574 3.51112C116.493 2.17956 114.471 2.1503 113.353 3.45004L89.4643 31.2168C88.6121 32.2073 88.5746 33.6607 89.3745 34.6939L120.174 74.4714C120.695 75.1441 121.498 75.5378 122.349 75.5378H170.228C172.543 75.5378 173.822 72.8529 172.364 71.0554L117.574 3.51112Z" fill="#7F4AFE"/>
<path fill-rule="evenodd" clip-rule="evenodd" d="M0.00109786 91.519C0.00103044 91.519 0.000976562 91.5191 0.000976562 91.5192C0.000976562 138.594 39.3999 176.756 88.001 176.756C136.602 176.756 176.001 138.594 176.001 91.5192C176.001 91.5191 176.001 91.519 176.001 91.519H121.001C121.001 91.519 121.001 91.5192 121.001 91.5193C121.001 109.172 106.226 123.483 88.0007 123.483C69.7753 123.483 55.0007 109.172 55.0007 91.5193C55.0007 91.5192 55.0006 91.519 55.0004 91.519H0.00109786Z" fill="#0166FF"/>
</svg>
