<svg version="1.1" xmlns="http://www.w3.org/2000/svg" xmlns:xlink="http://www.w3.org/1999/xlink" x="0px" y="0px" viewBox="0 0 84.9 89" xml:space="preserve" style="width: 85px; height: 89px;"><style type="text/css">.st0{fill:#1D0928;}.st1{fill:#7F4AFE;}.st2{fill:#0166FF;}</style><g><path class="st1" d="M0.5,40.2L28.4,0l14.1,20.4L28.2,40.7H0.8c-0.1,0-0.1,0-0.2-0.1c-0.1,0-0.1-0.1-0.1-0.1c0-0.1,0-0.1,0-0.2 C0.4,40.3,0.5,40.3,0.5,40.2z"></path><path class="st1" d="M84.4,40.2L56.5,0l-14,20.4l14.2,20.4h27.4c0.1,0,0.1,0,0.2-0.1c0.1,0,0.1-0.1,0.1-0.1c0-0.1,0-0.1,0-0.2 C84.5,40.3,84.4,40.3,84.4,40.2z"></path><path class="st2" d="M84.9,46c0.1,5.6-1,11.2-3.1,16.4c-2.1,5.2-5.2,10-9.2,14s-8.7,7.2-13.8,9.3S48.1,89,42.4,89 c-5.6,0-11.2-1.1-16.4-3.3s-9.9-5.3-13.8-9.3c-3.9-4-7.1-8.7-9.2-14C1,57.2-0.1,51.6,0,46h27c0,2.1,0.3,4.1,1.1,6 c0.8,1.9,1.9,3.7,3.3,5.1c1.4,1.5,3.2,2.6,5.1,3.4c1.9,0.8,3.9,1.2,6,1.2c2.1,0,4.1-0.4,6-1.2c1.9-0.8,3.6-2,5.1-3.4 c1.4-1.5,2.6-3.2,3.3-5.1c0.8-1.9,1.1-4,1.1-6H84.9z"></path></g></svg>