<svg xmlns="http://www.w3.org/2000/svg" width="16" height="20" fill="none" viewBox="0 0 16 20"><path fill="#23A49C" fill-rule="evenodd" d="m14.079 13.87.495-2.368-.013-.011-1.075-.92c.308-.118 1.328-.553 1.97-1.664l.007-.012c.209-.362.752-1.303.445-2.419a2.8 2.8 0 0 0-.738-1.239 4.15 4.15 0 0 1-.548 2.735 4.25 4.25 0 0 1-1.863 1.643H7.748L4.174 5.57c-.447.532-1.404.698-1.404.698a3.282 3.282 0 0 0 1.66-1.546 30 30 0 0 1-1.837.515l-.092.023c-.013-.385.023-1.1.46-1.791.051-.08.251-.387.635-.71C6.083.66 8.954.841 8.954.841c2.113.134 3.642 1.305 4.255 1.775.177.135.277.212.294.189C13.578 2.7 11.979.742 9.407.164c-3.394-.761-6.762 1.278-7.835 2.97-.354.556-.734 1.157-.786 1.87l-.019.32v.008C.75 5.626.724 6.103.68 6.79.609 7.93.366 8.883 0 9.679l1.596.07q.197-.47.396-.937l1.362-1.11L2.199 8.99v1.171l-.002.002v1.79l.018.438 2.023-2.154h1.771l-1.656.174L2.3 12.667l.51 3.529L1.684 20h1.003l2.107-5.323.84-2.13-.425 2.178 2.389.821 2.619-.237.864-.554-1.276-1.28 1.517 1.126 3.263 2.447L14.38 20h.848l.251-2.822zM2.672 6.508c.045.111-.274.385-.57.538-.388.201-.91.284-.959.16-.057-.149.545-.642 1.15-.735.08-.013.343-.053.38.037" clip-rule="evenodd"></path><path fill="#23A49C" d="m10.383 15.477.66.56 1.42 1.201-.372 2.763h.912l.465-3.283-2.228-1.778zM3.857 17.697 4.355 20H5.41l-.932-3.94z"></path></svg>