<svg width="42" height="42" viewBox="0 0 42 42" fill="none" xmlns="http://www.w3.org/2000/svg">
<circle cx="21" cy="21" r="21" fill="#31CB9E"/>
<path d="M20 21.0006L30.1946 26.9278C30.5478 27.1341 31 26.8735 31 26.461V15.5401C31 15.1276 30.5531 14.8644 30.1946 15.0733L20 21.0006Z" fill="white"/>
<path d="M28.7885 12.7478L22.2265 7.11849C21.9228 6.86208 21.4815 7.04273 21.3984 7.45939L19 20L28.7365 13.721C29.0636 13.5083 29.0922 13.0042 28.7885 12.7507V12.7478Z" fill="white"/>
<path d="M22.221 34.8786L28.7954 29.2406C29.091 28.9842 29.0599 28.483 28.7435 28.2703L19 22L21.4041 34.5406C21.4715 34.9573 21.9124 35.1379 22.2236 34.8815L22.221 34.8786Z" fill="white"/>
<path d="M17.0768 20.9971L19.9867 8.64662C20.0976 8.16454 19.4905 7.80497 19.0556 8.11659L11.6071 13.3104C11.2218 13.574 11 13.9949 11 14.4317V27.5839C11 28.0207 11.2218 28.4415 11.6071 28.7052L19.0556 33.891C19.4818 34.1866 20.0976 33.8377 19.9867 33.361L17.0768 20.9945V20.9971Z" fill="white"/>
</svg>
