<svg width="42" height="42" viewBox="0 0 42 42" fill="none" xmlns="http://www.w3.org/2000/svg">
<path d="M21 42C32.598 42 42 32.598 42 21C42 9.40202 32.598 0 21 0C9.40202 0 0 9.40202 0 21C0 32.598 9.40202 42 21 42Z" fill="url(#paint0_linear_156_558)"/>
<path d="M30.1909 29.3676L23.0899 12.1995C22.6893 11.3119 22.094 10.8789 21.3092 10.8789H20.6814C19.8966 10.8789 19.3012 11.3119 18.9007 12.1995L15.8102 19.6794H13.4721C12.7739 19.6848 12.2056 20.2477 12.2002 20.9513V20.9676C12.2056 21.6658 12.7739 22.2341 13.4721 22.2395H14.7277L11.778 29.3676C11.7239 29.5245 11.6914 29.6869 11.6914 29.8547C11.6914 30.2552 11.8159 30.5691 12.0378 30.8127C12.2597 31.0562 12.579 31.1753 12.9796 31.1753C13.2448 31.1699 13.4991 31.0887 13.7102 30.9317C13.9375 30.7748 14.0945 30.5475 14.219 30.2877L17.4664 22.2341H19.718C20.4161 22.2286 20.9844 21.6658 20.9899 20.9622V20.9297C20.9844 20.2315 20.4161 19.6632 19.718 19.6578H18.5164L20.9953 13.4823L27.7499 30.2823C27.8744 30.542 28.0314 30.7694 28.2587 30.9263C28.4698 31.0833 28.7295 31.1645 28.9893 31.1699C29.3899 31.1699 29.7038 31.0508 29.9311 30.8073C30.1584 30.5637 30.2775 30.2498 30.2775 29.8493C30.2829 29.6869 30.2558 29.5191 30.1909 29.3676Z" fill="white"/>
<defs>
<linearGradient id="paint0_linear_156_558" x1="36.6573" y1="7.82555" x2="5.4093" y2="34.1176" gradientUnits="userSpaceOnUse">
<stop stop-color="#B6509E"/>
<stop offset="1" stop-color="#2EBAC6"/>
</linearGradient>
</defs>
</svg>
