<svg width="42" height="42" viewBox="0 0 42 42" fill="none" xmlns="http://www.w3.org/2000/svg">
<g clip-path="url(#clip0_156_456)">
<path d="M21 0C32.599 0 42 9.40284 42 21C42 32.599 32.599 42 21 42C9.40284 42 0 32.5981 0 21C0 9.40284 9.40284 0 21 0Z" fill="#F5AC37"/>
<path d="M21.7747 22.2729H28.4591C28.6016 22.2729 28.6689 22.2729 28.6792 22.0819C28.7338 21.3866 28.7338 20.6873 28.6792 19.9913C28.6792 19.8561 28.6135 19.8003 28.4702 19.8003H15.1669C15.0023 19.8003 14.958 19.8561 14.958 20.0139V22.0147C14.958 22.2729 14.958 22.2729 15.2216 22.2729H21.7747ZM27.9327 17.462C27.9517 17.411 27.9517 17.3552 27.9327 17.305C27.8211 17.0565 27.6889 16.8194 27.5353 16.5968C27.3042 16.2164 27.0318 15.8659 26.7215 15.5511C26.5751 15.3609 26.4057 15.1901 26.2157 15.0452C25.2641 14.2172 24.1329 13.6313 22.917 13.3366C22.3035 13.1958 21.6765 13.1286 21.0479 13.1343H15.144C14.9793 13.1343 14.9572 13.2015 14.9572 13.348V17.3382C14.9572 17.5065 14.9572 17.5518 15.1662 17.5518H27.8535C27.8535 17.5518 27.9636 17.5292 27.9858 17.462H27.9319H27.9327ZM27.9327 24.6111C27.7459 24.5901 27.5575 24.5901 27.3707 24.6111H15.178C15.0134 24.6111 14.958 24.6111 14.958 24.8361V28.7373C14.958 28.917 14.958 28.9623 15.178 28.9623H20.8073C21.0764 28.9833 21.3456 28.9639 21.6092 28.9064C22.4262 28.8466 23.2297 28.6653 23.996 28.3666C24.2746 28.2679 24.5438 28.1392 24.7979 27.9846H24.8747C26.1943 27.2829 27.2662 26.1805 27.9422 24.8272C27.9422 24.8272 28.019 24.6573 27.9327 24.6128V24.6111ZM12.7485 30.9849V30.9177V28.2986V27.4107V24.769C12.7485 24.6225 12.7485 24.6006 12.5728 24.6006H10.1868C10.0546 24.6006 10 24.6006 10 24.4209V22.285H12.5506C12.6931 22.285 12.7485 22.285 12.7485 22.094V19.9807C12.7485 19.8456 12.7485 19.8124 12.5728 19.8124H10.1868C10.0546 19.8124 10 19.8124 10 19.6327V17.6546C10 17.5308 10 17.4976 10.1757 17.4976H12.5395C12.7042 17.4976 12.7485 17.4976 12.7485 17.2839V11.225C12.7485 11.0453 12.7485 11 12.9686 11H21.2142C21.8126 11.0243 22.4072 11.0915 22.9953 11.2023C24.2073 11.4314 25.3718 11.8741 26.4365 12.5062C27.1427 12.9312 27.7926 13.4443 28.3713 14.0351C28.8067 14.4973 29.1993 14.9975 29.5476 15.53C29.8936 16.0699 30.1809 16.647 30.4065 17.2499C30.4343 17.407 30.5815 17.513 30.7351 17.4863H32.7031C32.9556 17.4863 32.9556 17.4863 32.9667 17.7339V19.5777C32.9667 19.7574 32.901 19.8027 32.7244 19.8027H31.2069C31.0533 19.8027 31.009 19.8027 31.0201 20.005C31.0802 20.6897 31.0802 21.3769 31.0201 22.0616C31.0201 22.2526 31.0201 22.2753 31.2298 22.2753H32.9659C33.0427 22.3765 32.9659 22.4776 32.9659 22.5796C32.977 22.7099 32.977 22.8419 32.9659 22.9722V24.3327C32.9659 24.5237 32.9113 24.5804 32.7458 24.5804H30.6678C30.5229 24.5521 30.382 24.6467 30.3488 24.7941C29.854 26.1093 29.0624 27.2885 28.0396 28.2339C27.6659 28.5778 27.2733 28.9016 26.8632 29.2002C26.4231 29.4592 25.9948 29.7288 25.5436 29.9424C24.7132 30.3245 23.8424 30.6061 22.9486 30.785C22.1 30.9404 21.2395 31.0108 20.3758 30.9987H12.7454V30.9873L12.7485 30.9849Z" fill="#FEFEFD"/>
</g>
<defs>
<clipPath id="clip0_156_456">
<rect width="42" height="42" fill="white"/>
</clipPath>
</defs>
</svg>
